<svg xmlns="http://www.w3.org/2000/svg" xmlns:xlink="http://www.w3.org/1999/xlink" viewBox="0,0,256,256" width="24px" height="24px" fill-rule="nonzero"><g fill="#ffffff" fill-rule="nonzero" stroke="none" stroke-width="1" stroke-linecap="butt" stroke-linejoin="miter" stroke-miterlimit="10" stroke-dasharray="" stroke-dashoffset="0" font-family="none" font-weight="none" font-size="none" text-anchor="none" style="mix-blend-mode: normal"><g transform="scale(10.66667,10.66667)"><path d="M2.997,20.493v-16.986c0,-0.28 0.224,-0.507 0.5,-0.507h17.001c0.275,0 0.5,0.227 0.5,0.507v16.987c0,0.28 -0.225,0.507 -0.5,0.507h-17.001c-0.276,-0.001 -0.5,-0.228 -0.5,-0.508zM19.997,17.48c0,-1.507 -0.856,-2.186 -2.373,-2.84l-0.447,-0.187c-0.764,-0.346 -1.096,-0.56 -1.096,-1.107c0,-0.439 0.331,-0.773 0.853,-0.773c0.513,0 0.843,0.227 1.148,0.773l1.389,-0.906c-0.586,-1.04 -1.402,-1.44 -2.537,-1.44c-1.593,0 -2.612,1.027 -2.612,2.387c0,1.467 0.856,2.173 2.143,2.72l0.445,0.2c0.813,0.36 1.216,0.574 1.216,1.2c0,0.44 -0.532,0.68 -1.128,0.68c-0.88,0 -1.296,-0.4 -1.677,-1.027l-1.403,0.947c0.524,1.039 1.464,1.893 3.122,1.893c1.694,0 2.957,-0.893 2.957,-2.52zM12.997,17.16v-6.16h-2v5.867c0,0.934 -0.311,1.2 -0.92,1.2c-0.637,0 -1.08,-0.387 -1.371,-0.906l-1.509,0.906c0.437,0.934 1.508,1.921 2.992,1.921c1.644,-0.001 2.808,-0.908 2.808,-2.828z"></path></g></g></svg>