<svg xmlns="http://www.w3.org/2000/svg" xmlns:xlink="http://www.w3.org/1999/xlink" viewBox="0,0,256,256" width="96px" height="96px" fill-rule="nonzero"><g fill="#ffffff" fill-rule="nonzero" stroke="none" stroke-width="1" stroke-linecap="butt" stroke-linejoin="miter" stroke-miterlimit="10" stroke-dasharray="" stroke-dashoffset="0" font-family="none" font-weight="none" font-size="none" text-anchor="none" style="mix-blend-mode: normal"><g transform="scale(5.33333,5.33333)"><path d="M23.583,44.939l-13.592,-4c-0.593,-0.175 -1.019,-0.696 -1.071,-1.311l-2.912,-34c-0.075,-0.875 0.617,-1.629 1.495,-1.629h33.005c0.877,0 1.569,0.753 1.493,1.629l-2.912,34c-0.052,0.615 -0.477,1.136 -1.071,1.311l-13.589,4c-0.275,0.082 -0.57,0.082 -0.846,0zM24.422,34.939l6.504,-1.912c0.593,-0.175 1.019,-0.695 1.071,-1.311l1.468,-17.088c0.076,-0.876 -0.616,-1.629 -1.493,-1.629h-15.931c-0.828,0 -1.5,0.673 -1.5,1.5c0,0.828 0.672,1.5 1.5,1.5h14.296l-0.431,5h-13.095c-0.828,0 -1.5,0.673 -1.5,1.5c0,0.828 0.672,1.5 1.5,1.5h12.837l-0.553,6.439l-5.096,1.499l-5.089,-1.499l-0.263,-3.065c-0.069,-0.825 -0.797,-1.437 -1.621,-1.367c-0.825,0.069 -1.437,0.797 -1.367,1.621l0.349,4.088c0.052,0.616 0.477,1.137 1.071,1.312l6.496,1.912z"></path></g></g></svg>